<svg width="80" height="49" viewBox="0 0 141 86" fill="none" xmlns="http://www.w3.org/2000/svg">
    <g filter="url(#filter0_d_7_164)">
        <path d="M136.909 41.8479H31.3654V79.4619H136.909V41.8479Z" fill="#2D42E1" />
    </g>
    <path
        d="M50.0017 68.9005V52.5688H55.9826C57.1415 52.5688 58.1011 52.7602 58.8614 53.143C59.6216 53.5204 60.1904 54.0334 60.5679 54.682C60.9454 55.3253 61.1341 56.051 61.1341 56.8591C61.1341 57.5396 61.0092 58.1137 60.7593 58.5816C60.5094 59.0441 60.1745 59.4162 59.7545 59.698C59.3398 59.9744 58.8826 60.1765 58.3829 60.304V60.4635C58.9252 60.4901 59.4541 60.6656 59.9698 60.9899C60.4908 61.3088 60.9214 61.7634 61.2617 62.3535C61.6019 62.9436 61.7721 63.6613 61.7721 64.5066C61.7721 65.3413 61.5753 66.0909 61.1819 66.7554C60.7938 67.4146 60.1931 67.9383 59.3797 68.3264C58.5663 68.7092 57.527 68.9005 56.2617 68.9005H50.0017ZM52.4658 66.7873H56.0225C57.2027 66.7873 58.048 66.5587 58.5583 66.1015C59.0687 65.6443 59.3239 65.0728 59.3239 64.387C59.3239 63.8713 59.1936 63.3981 58.9331 62.9675C58.6726 62.5369 58.3005 62.194 57.8167 61.9388C57.3382 61.6836 56.7694 61.556 56.1102 61.556H52.4658V66.7873ZM52.4658 59.6342H55.7673C56.3202 59.6342 56.8172 59.5279 57.2585 59.3152C57.7051 59.1026 58.0586 58.8048 58.3191 58.4221C58.5849 58.034 58.7178 57.5768 58.7178 57.0505C58.7178 56.3753 58.4812 55.8091 58.0081 55.3519C57.5349 54.8947 56.8093 54.6661 55.8311 54.6661H52.4658V59.6342ZM68.0679 69.1717C67.2917 69.1717 66.59 69.0281 65.9626 68.741C65.3353 68.4487 64.8382 68.026 64.4714 67.4731C64.1099 66.9202 63.9291 66.2424 63.9291 65.4396C63.9291 64.7485 64.0621 64.1796 64.3279 63.7331C64.5937 63.2865 64.9525 62.933 65.4044 62.6725C65.8563 62.412 66.3614 62.2153 66.9196 62.0824C67.4778 61.9495 68.0466 61.8484 68.6261 61.7793C69.3598 61.6943 69.9552 61.6252 70.4124 61.572C70.8696 61.5135 71.2019 61.4205 71.4092 61.2929C71.6165 61.1653 71.7202 60.958 71.7202 60.6709V60.6151C71.7202 59.9186 71.5235 59.379 71.1301 58.9962C70.742 58.6135 70.1625 58.4221 69.3917 58.4221C68.5889 58.4221 67.9563 58.6002 67.4937 58.9564C67.0365 59.3072 66.7202 59.698 66.5448 60.1286L64.3039 59.6182C64.5698 58.874 64.9579 58.2732 65.4682 57.816C65.9839 57.3535 66.5767 57.0186 67.2465 56.8112C67.9164 56.5986 68.6208 56.4922 69.3598 56.4922C69.8489 56.4922 70.3672 56.5507 70.9148 56.6677C71.4677 56.7793 71.9834 56.9867 72.4618 57.2897C72.9456 57.5927 73.3417 58.026 73.65 58.5895C73.9584 59.1477 74.1126 59.8734 74.1126 60.7666V68.9005H71.784V67.2259H71.6883C71.5341 67.5342 71.3029 67.8373 70.9945 68.135C70.6862 68.4327 70.2901 68.6799 69.8063 68.8766C69.3226 69.0733 68.7431 69.1717 68.0679 69.1717ZM68.5862 67.2578C69.2455 67.2578 69.809 67.1275 70.2768 66.867C70.75 66.6065 71.1088 66.2663 71.3534 65.8463C71.6033 65.421 71.7282 64.9665 71.7282 64.4827V62.9037C71.6431 62.9888 71.4783 63.0685 71.2338 63.143C70.9945 63.2121 70.7207 63.2732 70.4124 63.3264C70.1041 63.3742 69.8037 63.4194 69.5113 63.4619C69.2189 63.4992 68.9743 63.5311 68.7776 63.5576C68.3151 63.6161 67.8925 63.7145 67.5097 63.8527C67.1322 63.9909 66.8292 64.1903 66.6006 64.4508C66.3773 64.706 66.2657 65.0462 66.2657 65.4715C66.2657 66.0616 66.4836 66.5082 66.9196 66.8112C67.3555 67.1089 67.9111 67.2578 68.5862 67.2578ZM81.8737 69.1398C80.8849 69.1398 80.0024 68.8872 79.2262 68.3822C78.4553 67.8718 77.8493 67.1462 77.408 66.2052C76.9721 65.2589 76.7541 64.1238 76.7541 62.8001C76.7541 61.4763 76.9747 60.3439 77.416 59.4029C77.8626 58.4619 78.4739 57.7416 79.2501 57.2418C80.0263 56.7421 80.9062 56.4922 81.8897 56.4922C82.6499 56.4922 83.2613 56.6198 83.7238 56.875C84.1916 57.1249 84.5532 57.4173 84.8083 57.7522C85.0688 58.0871 85.2709 58.3822 85.4144 58.6374H85.5579V52.5688H87.9423V68.9005H85.6138V66.9946H85.4144C85.2709 67.2551 85.0635 67.5529 84.7924 67.8878C84.5266 68.2227 84.1597 68.5151 83.6919 68.765C83.2241 69.0148 82.618 69.1398 81.8737 69.1398ZM82.4 67.1063C83.0858 67.1063 83.6653 66.9255 84.1385 66.564C84.6169 66.1972 84.9785 65.6895 85.223 65.0409C85.4729 64.3923 85.5978 63.6374 85.5978 62.7761C85.5978 61.9255 85.4755 61.1812 85.231 60.5433C84.9864 59.9053 84.6276 59.4082 84.1544 59.0521C83.6813 58.6959 83.0965 58.5178 82.4 58.5178C81.6823 58.5178 81.0843 58.7038 80.6058 59.076C80.1273 59.4481 79.7658 59.9558 79.5213 60.5991C79.282 61.2424 79.1624 61.9681 79.1624 62.7761C79.1624 63.5949 79.2847 64.3312 79.5292 64.9851C79.7738 65.639 80.1353 66.1573 80.6138 66.5401C81.0975 66.9176 81.693 67.1063 82.4 67.1063ZM91.3454 68.9005V56.6517H93.7298V68.9005H91.3454ZM92.5496 54.7618C92.1349 54.7618 91.7787 54.6236 91.481 54.3471C91.1886 54.0653 91.0424 53.7304 91.0424 53.3423C91.0424 52.9489 91.1886 52.614 91.481 52.3375C91.7787 52.0558 92.1349 51.9149 92.5496 51.9149C92.9642 51.9149 93.3178 52.0558 93.6102 52.3375C93.9079 52.614 94.0567 52.9489 94.0567 53.3423C94.0567 53.7304 93.9079 54.0653 93.6102 54.3471C93.3178 54.6236 92.9642 54.7618 92.5496 54.7618ZM100.502 69.1717C99.7259 69.1717 99.0242 69.0281 98.3968 68.741C97.7695 68.4487 97.2724 68.026 96.9056 67.4731C96.5441 66.9202 96.3634 66.2424 96.3634 65.4396C96.3634 64.7485 96.4963 64.1796 96.7621 63.7331C97.0279 63.2865 97.3867 62.933 97.8386 62.6725C98.2905 62.412 98.7956 62.2153 99.3538 62.0824C99.912 61.9495 100.481 61.8484 101.06 61.7793C101.794 61.6943 102.389 61.6252 102.847 61.572C103.304 61.5135 103.636 61.4205 103.843 61.2929C104.051 61.1653 104.154 60.958 104.154 60.6709V60.6151C104.154 59.9186 103.958 59.379 103.564 58.9962C103.176 58.6135 102.597 58.4221 101.826 58.4221C101.023 58.4221 100.39 58.6002 99.9279 58.9564C99.4707 59.3072 99.1544 59.698 98.979 60.1286L96.7382 59.6182C97.004 58.874 97.3921 58.2732 97.9024 57.816C98.4181 57.3535 99.0109 57.0186 99.6807 56.8112C100.351 56.5986 101.055 56.4922 101.794 56.4922C102.283 56.4922 102.801 56.5507 103.349 56.6677C103.902 56.7793 104.418 56.9867 104.896 57.2897C105.38 57.5927 105.776 58.026 106.084 58.5895C106.393 59.1477 106.547 59.8734 106.547 60.7666V68.9005H104.218V67.2259H104.123C103.968 67.5342 103.737 67.8373 103.429 68.135C103.12 68.4327 102.724 68.6799 102.241 68.8766C101.757 69.0733 101.177 69.1717 100.502 69.1717ZM101.02 67.2578C101.68 67.2578 102.243 67.1275 102.711 66.867C103.184 66.6065 103.543 66.2663 103.788 65.8463C104.037 65.421 104.162 64.9665 104.162 64.4827V62.9037C104.077 62.9888 103.913 63.0685 103.668 63.143C103.429 63.2121 103.155 63.2732 102.847 63.3264C102.538 63.3742 102.238 63.4194 101.945 63.4619C101.653 63.4992 101.409 63.5311 101.212 63.5576C100.749 63.6161 100.327 63.7145 99.9439 63.8527C99.5664 63.9909 99.2634 64.1903 99.0348 64.4508C98.8115 64.706 98.6999 65.0462 98.6999 65.4715C98.6999 66.0616 98.9178 66.5082 99.3538 66.8112C99.7897 67.1089 100.345 67.2578 101.02 67.2578ZM112.107 52.5688V68.9005H109.723V52.5688H112.107ZM115.315 68.9005V56.6517H117.699V68.9005H115.315ZM116.519 54.7618C116.104 54.7618 115.748 54.6236 115.45 54.3471C115.158 54.0653 115.012 53.7304 115.012 53.3423C115.012 52.9489 115.158 52.614 115.45 52.3375C115.748 52.0558 116.104 51.9149 116.519 51.9149C116.934 51.9149 117.287 52.0558 117.579 52.3375C117.877 52.614 118.026 52.9489 118.026 53.3423C118.026 53.7304 117.877 54.0653 117.579 54.3471C117.287 54.6236 116.934 54.7618 116.519 54.7618Z"
        fill="white" />
    <g filter="url(#filter1_d_7_164)">
        <path d="M12.2776 41.8479L5.54077 4.23387L36.418 22.7602L21.2601 26.69L12.2776 41.8479Z"
            fill="#2D42E1" />
        <path d="M12.2776 41.8479L5.54077 4.23387L36.418 22.7602L21.2601 26.69L12.2776 41.8479Z"
            stroke="white" stroke-width="2.24561" />
    </g>
    <defs>
        <filter id="filter0_d_7_164" x="27.3654" y="39.8479" width="113.544" height="45.614"
            filterUnits="userSpaceOnUse" color-interpolation-filters="sRGB">
            <feFlood flood-opacity="0" result="BackgroundImageFix" />
            <feColorMatrix in="SourceAlpha" type="matrix"
                values="0 0 0 0 0 0 0 0 0 0 0 0 0 0 0 0 0 0 127 0" result="hardAlpha" />
            <feOffset dy="2" />
            <feGaussianBlur stdDeviation="2" />
            <feComposite in2="hardAlpha" operator="out" />
            <feColorMatrix type="matrix" values="0 0 0 0 0 0 0 0 0 0 0 0 0 0 0 0 0 0 0.2 0" />
            <feBlend mode="normal" in2="BackgroundImageFix" result="effect1_dropShadow_7_164" />
            <feBlend mode="normal" in="SourceGraphic" in2="effect1_dropShadow_7_164" result="shape" />
        </filter>
        <filter id="filter1_d_7_164" x="0" y="0" width="43.2918" height="51.0173"
            filterUnits="userSpaceOnUse" color-interpolation-filters="sRGB">
            <feFlood flood-opacity="0" result="BackgroundImageFix" />
            <feColorMatrix in="SourceAlpha" type="matrix"
                values="0 0 0 0 0 0 0 0 0 0 0 0 0 0 0 0 0 0 127 0" result="hardAlpha" />
            <feOffset dy="2" />
            <feGaussianBlur stdDeviation="2" />
            <feComposite in2="hardAlpha" operator="out" />
            <feColorMatrix type="matrix" values="0 0 0 0 0 0 0 0 0 0 0 0 0 0 0 0 0 0 0.2 0" />
            <feBlend mode="normal" in2="BackgroundImageFix" result="effect1_dropShadow_7_164" />
            <feBlend mode="normal" in="SourceGraphic" in2="effect1_dropShadow_7_164" result="shape" />
        </filter>
    </defs>
</svg>