<svg width="247" height="246" viewBox="0 0 247 246" fill="none" xmlns="http://www.w3.org/2000/svg">
<path fill-rule="evenodd" clip-rule="evenodd" d="M228.386 228.282V18H18.0316V55.8151H38.8324V38.7077H207.582V207.575H184.106C181.757 214.832 177.226 221.753 170.125 228.282H228.386Z" fill="#353745"/>
<path fill-rule="evenodd" clip-rule="evenodd" d="M141.548 131.01C139.524 133.988 136.626 136.095 132.881 137.36C130.169 138.239 122.113 138.654 115.604 138.674L94.4143 138.656V97.8937H116.876C125.376 97.8937 131.269 98.4801 134.548 99.7732C137.561 100.961 139.962 103.133 141.78 106.252C143.689 109.519 144.606 113.618 144.606 118.537C144.606 123.787 143.627 127.955 141.548 131.01ZM163.871 159.684C160.232 154.199 155.464 150.066 149.569 147.28C153.808 144.108 157.206 140.185 159.753 135.514C162.88 129.786 164.451 123.356 164.451 116.215C164.451 108.53 162.638 101.517 159.027 95.1718C155.379 88.7651 150.682 84.0664 144.961 81.0398C139.326 78.0618 131.694 76.5229 122.043 76.5229H74.3656V186.895H94.4143V160.07H115.604L120.624 160.045C128.559 160.045 134.388 160.839 138.097 162.539C141.62 164.157 144.418 166.725 146.501 170.234C148.636 173.829 149.674 178.225 149.674 183.413C149.674 189.062 148.593 193.76 146.354 197.496C144.181 201.117 141.01 203.713 136.85 205.296C133.834 206.446 129.147 207.57 122.803 207.575H38.8323V76.5229H18.0315V228.283H74.3656V228.354H122.754C133.873 228.354 142.607 226.723 148.974 223.556C155.47 220.322 160.678 215.149 164.569 208.008C168.397 200.979 170.331 192.816 170.331 183.515C170.331 174.069 168.157 166.131 163.871 159.684Z" fill="#353745"/>
<rect x="9" y="9" width="229" height="229" stroke="#2D42E1" stroke-width="2"/>
<rect x="1.12281" y="229.123" width="15.7193" height="15.7193" fill="white" stroke="#2D42E1" stroke-width="2.24561"/>
<rect x="230.052" y="229.123" width="15.7193" height="15.7193" fill="white" stroke="#2D42E1" stroke-width="2.24561"/>
<rect x="230.052" y="1.12281" width="15.7193" height="15.7193" fill="white" stroke="#2D42E1" stroke-width="2.24561"/>
<rect x="1.12281" y="1.12281" width="15.7193" height="15.7193" fill="white" stroke="#2D42E1" stroke-width="2.24561"/>
</svg>
