<svg width="462" height="254" viewBox="0 0 462 254" fill="none" xmlns="http://www.w3.org/2000/svg">
<path d="M106.953 114.045L434.088 107.369L434.571 155.427L108.822 161.687L106.953 114.045Z" fill="#D8FF80"/>
<path d="M91.035 158.006L454.148 153.99L456.086 202.055L92.9654 206.36L91.035 158.006Z" fill="#D8FF80"/>
<path d="M12 245H5.53636V224.055H12.2864C14.3182 224.055 16.0568 224.474 17.5023 225.313C18.9477 226.144 20.0557 227.341 20.8261 228.902C21.5966 230.457 21.9818 232.318 21.9818 234.486C21.9818 236.668 21.5932 238.547 20.8159 240.122C20.0386 241.69 18.9068 242.897 17.4205 243.742C15.9341 244.581 14.1273 245 12 245ZM8.07273 242.75H11.8364C13.5682 242.75 15.0034 242.416 16.142 241.748C17.2807 241.08 18.1295 240.128 18.6886 238.894C19.2477 237.66 19.5273 236.191 19.5273 234.486C19.5273 232.795 19.2511 231.34 18.6989 230.119C18.1466 228.892 17.3216 227.951 16.2239 227.297C15.1261 226.635 13.7591 226.305 12.1227 226.305H8.07273V242.75ZM31.6315 245.327C30.1178 245.327 28.8121 244.993 27.7144 244.325C26.6235 243.65 25.7815 242.709 25.1883 241.502C24.6019 240.289 24.3087 238.877 24.3087 237.268C24.3087 235.659 24.6019 234.241 25.1883 233.014C25.7815 231.78 26.6065 230.818 27.6633 230.13C28.7269 229.434 29.9678 229.086 31.386 229.086C32.2042 229.086 33.0121 229.223 33.8099 229.495C34.6076 229.768 35.3337 230.211 35.9883 230.825C36.6428 231.432 37.1644 232.236 37.553 233.239C37.9417 234.241 38.136 235.475 38.136 236.941V237.964H26.0269V235.877H35.6815C35.6815 234.991 35.5042 234.2 35.1496 233.505C34.8019 232.809 34.3042 232.26 33.6565 231.858C33.0155 231.456 32.2587 231.255 31.386 231.255C30.4246 231.255 29.5928 231.493 28.8905 231.97C28.1951 232.441 27.6599 233.055 27.2849 233.811C26.9099 234.568 26.7224 235.38 26.7224 236.245V237.636C26.7224 238.823 26.9269 239.828 27.336 240.653C27.7519 241.472 28.328 242.095 29.0644 242.525C29.8008 242.948 30.6565 243.159 31.6315 243.159C32.2655 243.159 32.8383 243.07 33.3496 242.893C33.8678 242.709 34.3144 242.436 34.6894 242.075C35.0644 241.707 35.3542 241.25 35.5587 240.705L37.8905 241.359C37.6451 242.15 37.2326 242.845 36.653 243.445C36.0735 244.039 35.3576 244.502 34.5053 244.836C33.653 245.164 32.6951 245.327 31.6315 245.327ZM52.0709 232.809L49.9027 233.423C49.7663 233.061 49.5652 232.71 49.2993 232.369C49.0402 232.022 48.6856 231.735 48.2356 231.51C47.7856 231.285 47.2095 231.173 46.5072 231.173C45.5459 231.173 44.7447 231.394 44.1038 231.838C43.4697 232.274 43.1527 232.83 43.1527 233.505C43.1527 234.105 43.3709 234.578 43.8072 234.926C44.2436 235.274 44.9254 235.564 45.8527 235.795L48.1845 236.368C49.589 236.709 50.6356 237.231 51.3243 237.933C52.0129 238.628 52.3572 239.525 52.3572 240.623C52.3572 241.523 52.0981 242.327 51.58 243.036C51.0686 243.745 50.3527 244.305 49.4322 244.714C48.5118 245.123 47.4413 245.327 46.2209 245.327C44.6186 245.327 43.2925 244.98 42.2425 244.284C41.1925 243.589 40.5277 242.573 40.2481 241.236L42.539 240.664C42.7572 241.509 43.1697 242.143 43.7765 242.566C44.3902 242.989 45.1913 243.2 46.18 243.2C47.305 243.2 48.1981 242.961 48.8595 242.484C49.5277 242 49.8618 241.42 49.8618 240.745C49.8618 240.2 49.6709 239.743 49.289 239.375C48.9072 239 48.3209 238.72 47.53 238.536L44.9118 237.923C43.4731 237.582 42.4163 237.053 41.7413 236.338C41.0731 235.615 40.739 234.711 40.739 233.627C40.739 232.741 40.9879 231.957 41.4856 231.275C41.9902 230.593 42.6754 230.058 43.5413 229.669C44.414 229.281 45.4027 229.086 46.5072 229.086C48.0618 229.086 49.2822 229.427 50.1686 230.109C51.0618 230.791 51.6959 231.691 52.0709 232.809ZM55.1265 245V229.291H57.5401V245H55.1265ZM56.3537 226.673C55.8833 226.673 55.4776 226.513 55.1367 226.192C54.8026 225.872 54.6356 225.486 54.6356 225.036C54.6356 224.586 54.8026 224.201 55.1367 223.881C55.4776 223.56 55.8833 223.4 56.3537 223.4C56.8242 223.4 57.2265 223.56 57.5606 223.881C57.9015 224.201 58.0719 224.586 58.0719 225.036C58.0719 225.486 57.9015 225.872 57.5606 226.192C57.2265 226.513 56.8242 226.673 56.3537 226.673ZM67.4377 251.218C66.2718 251.218 65.2696 251.068 64.4309 250.768C63.5923 250.475 62.8934 250.086 62.3343 249.602C61.7821 249.125 61.3423 248.614 61.015 248.068L62.9377 246.718C63.1559 247.005 63.4321 247.332 63.7662 247.7C64.1002 248.075 64.5571 248.399 65.1366 248.672C65.723 248.951 66.49 249.091 67.4377 249.091C68.7059 249.091 69.7525 248.784 70.5775 248.17C71.4025 247.557 71.815 246.595 71.815 245.286V242.095H71.6105C71.4332 242.382 71.1809 242.736 70.8537 243.159C70.5332 243.575 70.0696 243.947 69.4627 244.274C68.8627 244.594 68.0514 244.755 67.0287 244.755C65.7605 244.755 64.6218 244.455 63.6127 243.855C62.6105 243.255 61.8162 242.382 61.2298 241.236C60.6502 240.091 60.3605 238.7 60.3605 237.064C60.3605 235.455 60.6434 234.053 61.2093 232.86C61.7752 231.66 62.5627 230.733 63.5718 230.078C64.5809 229.417 65.7468 229.086 67.0696 229.086C68.0923 229.086 68.9037 229.257 69.5037 229.598C70.1105 229.932 70.5741 230.314 70.8946 230.743C71.2218 231.166 71.4741 231.514 71.6514 231.786H71.8968V229.291H74.2287V245.45C74.2287 246.8 73.9218 247.898 73.3082 248.743C72.7014 249.595 71.8832 250.219 70.8537 250.615C69.8309 251.017 68.6923 251.218 67.4377 251.218ZM67.3559 242.586C68.3241 242.586 69.1423 242.365 69.8105 241.922C70.4787 241.478 70.9866 240.841 71.3343 240.009C71.6821 239.177 71.8559 238.182 71.8559 237.023C71.8559 235.891 71.6855 234.892 71.3446 234.026C71.0037 233.16 70.4991 232.482 69.8309 231.991C69.1627 231.5 68.3377 231.255 67.3559 231.255C66.3332 231.255 65.4809 231.514 64.7991 232.032C64.1241 232.55 63.6162 233.245 63.2752 234.118C62.9412 234.991 62.7741 235.959 62.7741 237.023C62.7741 238.114 62.9446 239.078 63.2855 239.917C63.6332 240.749 64.1446 241.403 64.8196 241.881C65.5014 242.351 66.3468 242.586 67.3559 242.586ZM80.1965 235.55V245H77.7828V229.291H80.1147V231.745H80.3192C80.6874 230.948 81.2465 230.307 81.9965 229.823C82.7465 229.332 83.7147 229.086 84.901 229.086C85.9647 229.086 86.8953 229.305 87.6931 229.741C88.4908 230.17 89.1112 230.825 89.5544 231.705C89.9976 232.577 90.2192 233.682 90.2192 235.018V245H87.8056V235.182C87.8056 233.948 87.4851 232.986 86.8442 232.298C86.2033 231.602 85.3237 231.255 84.2056 231.255C83.4351 231.255 82.7465 231.422 82.1397 231.756C81.5397 232.09 81.0658 232.577 80.7181 233.218C80.3703 233.859 80.1965 234.636 80.1965 235.55ZM112.784 229.291C112.661 228.255 112.163 227.45 111.29 226.877C110.418 226.305 109.347 226.018 108.079 226.018C107.152 226.018 106.34 226.168 105.645 226.468C104.956 226.768 104.418 227.181 104.029 227.706C103.647 228.231 103.456 228.827 103.456 229.495C103.456 230.055 103.589 230.535 103.855 230.938C104.128 231.333 104.476 231.664 104.898 231.93C105.321 232.189 105.764 232.403 106.228 232.574C106.691 232.738 107.118 232.87 107.506 232.973L109.634 233.545C110.179 233.689 110.786 233.886 111.454 234.139C112.129 234.391 112.773 234.735 113.387 235.172C114.007 235.601 114.519 236.153 114.921 236.828C115.323 237.503 115.524 238.332 115.524 239.314C115.524 240.445 115.228 241.468 114.635 242.382C114.048 243.295 113.189 244.022 112.057 244.56C110.932 245.099 109.565 245.368 107.956 245.368C106.456 245.368 105.157 245.126 104.06 244.642C102.969 244.158 102.11 243.483 101.482 242.617C100.862 241.751 100.511 240.745 100.429 239.6H103.047C103.115 240.391 103.381 241.045 103.845 241.564C104.315 242.075 104.909 242.457 105.624 242.709C106.347 242.955 107.124 243.077 107.956 243.077C108.924 243.077 109.794 242.92 110.564 242.607C111.335 242.286 111.945 241.843 112.395 241.277C112.845 240.705 113.07 240.036 113.07 239.273C113.07 238.577 112.876 238.011 112.487 237.575C112.098 237.139 111.587 236.784 110.953 236.511C110.319 236.239 109.634 236 108.897 235.795L106.32 235.059C104.684 234.589 103.388 233.917 102.434 233.044C101.479 232.172 101.002 231.03 101.002 229.618C101.002 228.445 101.319 227.423 101.953 226.55C102.594 225.67 103.453 224.989 104.53 224.505C105.614 224.014 106.824 223.768 108.161 223.768C109.511 223.768 110.711 224.01 111.761 224.494C112.811 224.972 113.643 225.626 114.256 226.458C114.877 227.29 115.204 228.234 115.238 229.291H112.784ZM120.058 250.891C119.649 250.891 119.284 250.857 118.964 250.789C118.643 250.727 118.422 250.666 118.299 250.605L118.912 248.477C119.499 248.627 120.017 248.682 120.467 248.641C120.917 248.6 121.316 248.399 121.664 248.037C122.018 247.683 122.342 247.107 122.635 246.309L123.085 245.082L117.276 229.291H119.894L124.231 241.809H124.394L128.731 229.291H131.349L124.681 247.291C124.381 248.102 124.009 248.774 123.566 249.306C123.123 249.844 122.608 250.243 122.022 250.502C121.442 250.761 120.787 250.891 120.058 250.891ZM144.798 232.809L142.63 233.423C142.493 233.061 142.292 232.71 142.026 232.369C141.767 232.022 141.413 231.735 140.963 231.51C140.513 231.285 139.937 231.173 139.234 231.173C138.273 231.173 137.472 231.394 136.831 231.838C136.197 232.274 135.88 232.83 135.88 233.505C135.88 234.105 136.098 234.578 136.534 234.926C136.971 235.274 137.652 235.564 138.58 235.795L140.912 236.368C142.316 236.709 143.363 237.231 144.051 237.933C144.74 238.628 145.084 239.525 145.084 240.623C145.084 241.523 144.825 242.327 144.307 243.036C143.796 243.745 143.08 244.305 142.159 244.714C141.239 245.123 140.168 245.327 138.948 245.327C137.346 245.327 136.019 244.98 134.969 244.284C133.919 243.589 133.255 242.573 132.975 241.236L135.266 240.664C135.484 241.509 135.897 242.143 136.504 242.566C137.117 242.989 137.918 243.2 138.907 243.2C140.032 243.2 140.925 242.961 141.587 242.484C142.255 242 142.589 241.42 142.589 240.745C142.589 240.2 142.398 239.743 142.016 239.375C141.634 239 141.048 238.72 140.257 238.536L137.639 237.923C136.2 237.582 135.143 237.053 134.468 236.338C133.8 235.615 133.466 234.711 133.466 233.627C133.466 232.741 133.715 231.957 134.213 231.275C134.717 230.593 135.402 230.058 136.268 229.669C137.141 229.281 138.13 229.086 139.234 229.086C140.789 229.086 142.009 229.427 142.896 230.109C143.789 230.791 144.423 231.691 144.798 232.809ZM154.685 229.291V231.336H146.544V229.291H154.685ZM148.917 225.527H151.331V240.5C151.331 241.182 151.43 241.693 151.627 242.034C151.832 242.368 152.091 242.593 152.405 242.709C152.725 242.818 153.063 242.873 153.417 242.873C153.683 242.873 153.901 242.859 154.072 242.832C154.242 242.798 154.378 242.77 154.481 242.75L154.972 244.918C154.808 244.98 154.58 245.041 154.286 245.102C153.993 245.17 153.622 245.205 153.172 245.205C152.49 245.205 151.822 245.058 151.167 244.765C150.519 244.472 149.981 244.025 149.551 243.425C149.128 242.825 148.917 242.068 148.917 241.155V225.527ZM163.87 245.327C162.356 245.327 161.05 244.993 159.953 244.325C158.862 243.65 158.02 242.709 157.426 241.502C156.84 240.289 156.547 238.877 156.547 237.268C156.547 235.659 156.84 234.241 157.426 233.014C158.02 231.78 158.845 230.818 159.901 230.13C160.965 229.434 162.206 229.086 163.624 229.086C164.442 229.086 165.25 229.223 166.048 229.495C166.846 229.768 167.572 230.211 168.226 230.825C168.881 231.432 169.403 232.236 169.791 233.239C170.18 234.241 170.374 235.475 170.374 236.941V237.964H158.265V235.877H167.92C167.92 234.991 167.742 234.2 167.388 233.505C167.04 232.809 166.542 232.26 165.895 231.858C165.254 231.456 164.497 231.255 163.624 231.255C162.663 231.255 161.831 231.493 161.129 231.97C160.433 232.441 159.898 233.055 159.523 233.811C159.148 234.568 158.96 235.38 158.96 236.245V237.636C158.96 238.823 159.165 239.828 159.574 240.653C159.99 241.472 160.566 242.095 161.303 242.525C162.039 242.948 162.895 243.159 163.87 243.159C164.504 243.159 165.076 243.07 165.588 242.893C166.106 242.709 166.553 242.436 166.928 242.075C167.303 241.707 167.592 241.25 167.797 240.705L170.129 241.359C169.883 242.15 169.471 242.845 168.891 243.445C168.312 244.039 167.596 244.502 166.743 244.836C165.891 245.164 164.933 245.327 163.87 245.327ZM173.182 245V229.291H175.514V231.745H175.718C176.045 230.907 176.574 230.256 177.303 229.792C178.033 229.322 178.909 229.086 179.932 229.086C180.968 229.086 181.831 229.322 182.519 229.792C183.215 230.256 183.757 230.907 184.145 231.745H184.309C184.711 230.934 185.315 230.29 186.119 229.813C186.924 229.328 187.889 229.086 189.014 229.086C190.418 229.086 191.567 229.526 192.46 230.406C193.353 231.278 193.8 232.639 193.8 234.486V245H191.386V234.486C191.386 233.327 191.069 232.499 190.435 232.001C189.801 231.503 189.054 231.255 188.195 231.255C187.091 231.255 186.235 231.589 185.628 232.257C185.021 232.918 184.718 233.757 184.718 234.773V245H182.264V234.241C182.264 233.348 181.974 232.628 181.394 232.083C180.815 231.531 180.068 231.255 179.154 231.255C178.527 231.255 177.941 231.422 177.395 231.756C176.857 232.09 176.42 232.553 176.086 233.147C175.759 233.733 175.595 234.411 175.595 235.182V245H173.182ZM208.476 232.809L206.308 233.423C206.172 233.061 205.971 232.71 205.705 232.369C205.446 232.022 205.091 231.735 204.641 231.51C204.191 231.285 203.615 231.173 202.913 231.173C201.951 231.173 201.15 231.394 200.509 231.838C199.875 232.274 199.558 232.83 199.558 233.505C199.558 234.105 199.776 234.578 200.213 234.926C200.649 235.274 201.331 235.564 202.258 235.795L204.59 236.368C205.994 236.709 207.041 237.231 207.73 237.933C208.418 238.628 208.763 239.525 208.763 240.623C208.763 241.523 208.504 242.327 207.985 243.036C207.474 243.745 206.758 244.305 205.838 244.714C204.917 245.123 203.847 245.327 202.626 245.327C201.024 245.327 199.698 244.98 198.648 244.284C197.598 243.589 196.933 242.573 196.654 241.236L198.944 240.664C199.163 241.509 199.575 242.143 200.182 242.566C200.796 242.989 201.597 243.2 202.585 243.2C203.71 243.2 204.604 242.961 205.265 242.484C205.933 242 206.267 241.42 206.267 240.745C206.267 240.2 206.076 239.743 205.694 239.375C205.313 239 204.726 238.72 203.935 238.536L201.317 237.923C199.879 237.582 198.822 237.053 198.147 236.338C197.479 235.615 197.144 234.711 197.144 233.627C197.144 232.741 197.393 231.957 197.891 231.275C198.396 230.593 199.081 230.058 199.947 229.669C200.819 229.281 201.808 229.086 202.913 229.086C204.467 229.086 205.688 229.427 206.574 230.109C207.467 230.791 208.101 231.691 208.476 232.809ZM224.7 245.286C223.322 245.286 222.136 245.034 221.141 244.53C220.145 244.025 219.378 243.333 218.839 242.453C218.301 241.574 218.031 240.568 218.031 239.436C218.031 238.564 218.216 237.79 218.584 237.115C218.959 236.433 219.474 235.802 220.128 235.223C220.789 234.636 221.55 234.05 222.409 233.464L225.436 231.214C226.029 230.825 226.503 230.409 226.858 229.966C227.219 229.523 227.4 228.943 227.4 228.227C227.4 227.695 227.164 227.181 226.694 226.683C226.23 226.185 225.62 225.936 224.863 225.936C224.331 225.936 223.861 226.073 223.452 226.345C223.05 226.611 222.733 226.952 222.501 227.368C222.276 227.777 222.163 228.2 222.163 228.636C222.163 229.127 222.296 229.625 222.562 230.13C222.835 230.627 223.179 231.139 223.595 231.664C224.018 232.182 224.454 232.714 224.904 233.259L234.518 245H231.613L223.677 235.427C222.941 234.541 222.272 233.736 221.672 233.014C221.072 232.291 220.595 231.578 220.241 230.876C219.886 230.174 219.709 229.414 219.709 228.595C219.709 227.655 219.917 226.83 220.333 226.12C220.755 225.405 221.345 224.849 222.102 224.453C222.866 224.051 223.759 223.85 224.781 223.85C225.831 223.85 226.735 224.055 227.492 224.464C228.249 224.866 228.831 225.401 229.241 226.069C229.65 226.731 229.854 227.45 229.854 228.227C229.854 229.23 229.605 230.099 229.108 230.835C228.61 231.572 227.931 232.257 227.072 232.891L222.9 236C221.959 236.695 221.321 237.37 220.987 238.025C220.653 238.68 220.486 239.15 220.486 239.436C220.486 240.091 220.656 240.701 220.997 241.267C221.338 241.833 221.819 242.29 222.439 242.638C223.06 242.985 223.786 243.159 224.618 243.159C225.409 243.159 226.179 242.992 226.929 242.658C227.679 242.317 228.358 241.826 228.964 241.185C229.578 240.544 230.062 239.774 230.417 238.874C230.778 237.974 230.959 236.961 230.959 235.836H233.291C233.291 237.227 233.13 238.363 232.81 239.242C232.489 240.122 232.128 240.81 231.726 241.308C231.324 241.806 231 242.177 230.754 242.423C230.672 242.525 230.597 242.627 230.529 242.73C230.461 242.832 230.386 242.934 230.304 243.036C229.629 243.793 228.777 244.359 227.747 244.734C226.718 245.102 225.702 245.286 224.7 245.286ZM243.889 245V224.055H256.448V226.305H246.425V233.382H255.507V235.632H246.425V245H243.889ZM259.432 245V229.291H261.764V231.664H261.928C262.214 230.886 262.732 230.256 263.482 229.772C264.232 229.287 265.078 229.045 266.018 229.045C266.196 229.045 266.417 229.049 266.683 229.056C266.949 229.062 267.15 229.073 267.287 229.086V231.541C267.205 231.52 267.017 231.49 266.724 231.449C266.438 231.401 266.134 231.377 265.814 231.377C265.05 231.377 264.368 231.538 263.768 231.858C263.175 232.172 262.705 232.608 262.357 233.167C262.016 233.719 261.846 234.35 261.846 235.059V245H259.432ZM275.187 245.327C273.769 245.327 272.525 244.99 271.454 244.315C270.391 243.64 269.559 242.695 268.959 241.482C268.366 240.268 268.069 238.85 268.069 237.227C268.069 235.591 268.366 234.162 268.959 232.942C269.559 231.722 270.391 230.774 271.454 230.099C272.525 229.424 273.769 229.086 275.187 229.086C276.606 229.086 277.846 229.424 278.91 230.099C279.981 230.774 280.812 231.722 281.406 232.942C282.006 234.162 282.306 235.591 282.306 237.227C282.306 238.85 282.006 240.268 281.406 241.482C280.812 242.695 279.981 243.64 278.91 244.315C277.846 244.99 276.606 245.327 275.187 245.327ZM275.187 243.159C276.265 243.159 277.151 242.883 277.846 242.331C278.542 241.778 279.057 241.052 279.391 240.152C279.725 239.252 279.892 238.277 279.892 237.227C279.892 236.177 279.725 235.199 279.391 234.292C279.057 233.385 278.542 232.652 277.846 232.093C277.151 231.534 276.265 231.255 275.187 231.255C274.11 231.255 273.224 231.534 272.528 232.093C271.833 232.652 271.318 233.385 270.984 234.292C270.65 235.199 270.483 236.177 270.483 237.227C270.483 238.277 270.65 239.252 270.984 240.152C271.318 241.052 271.833 241.778 272.528 242.331C273.224 242.883 274.11 243.159 275.187 243.159ZM287.54 235.55V245H285.126V229.291H287.458V231.745H287.662C288.031 230.948 288.59 230.307 289.34 229.823C290.09 229.332 291.058 229.086 292.244 229.086C293.308 229.086 294.238 229.305 295.036 229.741C295.834 230.17 296.454 230.825 296.898 231.705C297.341 232.577 297.562 233.682 297.562 235.018V245H295.149V235.182C295.149 233.948 294.828 232.986 294.187 232.298C293.546 231.602 292.667 231.255 291.549 231.255C290.778 231.255 290.09 231.422 289.483 231.756C288.883 232.09 288.409 232.577 288.061 233.218C287.713 233.859 287.54 234.636 287.54 235.55ZM307.941 229.291V231.336H299.8V229.291H307.941ZM302.172 225.527H304.586V240.5C304.586 241.182 304.685 241.693 304.883 242.034C305.087 242.368 305.346 242.593 305.66 242.709C305.98 242.818 306.318 242.873 306.672 242.873C306.938 242.873 307.157 242.859 307.327 242.832C307.497 242.798 307.634 242.77 307.736 242.75L308.227 244.918C308.063 244.98 307.835 245.041 307.542 245.102C307.249 245.17 306.877 245.205 306.427 245.205C305.745 245.205 305.077 245.058 304.422 244.765C303.775 244.472 303.236 244.025 302.807 243.425C302.384 242.825 302.172 242.068 302.172 241.155V225.527ZM317.125 245.327C315.611 245.327 314.306 244.993 313.208 244.325C312.117 243.65 311.275 242.709 310.682 241.502C310.095 240.289 309.802 238.877 309.802 237.268C309.802 235.659 310.095 234.241 310.682 233.014C311.275 231.78 312.1 230.818 313.157 230.13C314.22 229.434 315.461 229.086 316.879 229.086C317.698 229.086 318.506 229.223 319.303 229.495C320.101 229.768 320.827 230.211 321.482 230.825C322.136 231.432 322.658 232.236 323.047 233.239C323.435 234.241 323.629 235.475 323.629 236.941V237.964H311.52V235.877H321.175C321.175 234.991 320.998 234.2 320.643 233.505C320.295 232.809 319.798 232.26 319.15 231.858C318.509 231.456 317.752 231.255 316.879 231.255C315.918 231.255 315.086 231.493 314.384 231.97C313.689 232.441 313.153 233.055 312.778 233.811C312.403 234.568 312.216 235.38 312.216 236.245V237.636C312.216 238.823 312.42 239.828 312.829 240.653C313.245 241.472 313.822 242.095 314.558 242.525C315.294 242.948 316.15 243.159 317.125 243.159C317.759 243.159 318.332 243.07 318.843 242.893C319.361 242.709 319.808 242.436 320.183 242.075C320.558 241.707 320.848 241.25 321.052 240.705L323.384 241.359C323.139 242.15 322.726 242.845 322.147 243.445C321.567 244.039 320.851 244.502 319.999 244.836C319.147 245.164 318.189 245.327 317.125 245.327ZM328.851 235.55V245H326.437V229.291H328.769V231.745H328.973C329.342 230.948 329.901 230.307 330.651 229.823C331.401 229.332 332.369 229.086 333.555 229.086C334.619 229.086 335.55 229.305 336.347 229.741C337.145 230.17 337.765 230.825 338.209 231.705C338.652 232.577 338.873 233.682 338.873 235.018V245H336.46V235.182C336.46 233.948 336.139 232.986 335.498 232.298C334.858 231.602 333.978 231.255 332.86 231.255C332.089 231.255 331.401 231.422 330.794 231.756C330.194 232.09 329.72 232.577 329.372 233.218C329.025 233.859 328.851 234.636 328.851 235.55ZM348.352 245.327C347.043 245.327 345.887 244.997 344.885 244.335C343.882 243.667 343.098 242.726 342.532 241.513C341.967 240.292 341.684 238.85 341.684 237.186C341.684 235.536 341.967 234.105 342.532 232.891C343.098 231.677 343.886 230.74 344.895 230.078C345.904 229.417 347.07 229.086 348.393 229.086C349.415 229.086 350.223 229.257 350.817 229.598C351.417 229.932 351.873 230.314 352.187 230.743C352.507 231.166 352.756 231.514 352.934 231.786H353.138V224.055H355.552V245H353.22V242.586H352.934C352.756 242.873 352.504 243.234 352.177 243.67C351.85 244.1 351.382 244.485 350.776 244.826C350.169 245.16 349.361 245.327 348.352 245.327ZM348.679 243.159C349.647 243.159 350.465 242.907 351.134 242.402C351.802 241.891 352.31 241.185 352.657 240.285C353.005 239.378 353.179 238.332 353.179 237.145C353.179 235.973 353.009 234.947 352.668 234.067C352.327 233.181 351.822 232.492 351.154 232.001C350.486 231.503 349.661 231.255 348.679 231.255C347.656 231.255 346.804 231.517 346.122 232.042C345.447 232.56 344.939 233.266 344.598 234.159C344.264 235.045 344.097 236.041 344.097 237.145C344.097 238.264 344.268 239.28 344.609 240.193C344.956 241.1 345.468 241.823 346.143 242.361C346.825 242.893 347.67 243.159 348.679 243.159ZM373.47 245H367.007V224.055H373.757C375.789 224.055 377.527 224.474 378.973 225.313C380.418 226.144 381.526 227.341 382.297 228.902C383.067 230.457 383.452 232.318 383.452 234.486C383.452 236.668 383.064 238.547 382.286 240.122C381.509 241.69 380.377 242.897 378.891 243.742C377.404 244.581 375.598 245 373.47 245ZM369.543 242.75H373.307C375.039 242.75 376.474 242.416 377.612 241.748C378.751 241.08 379.6 240.128 380.159 238.894C380.718 237.66 380.998 236.191 380.998 234.486C380.998 232.795 380.722 231.34 380.169 230.119C379.617 228.892 378.792 227.951 377.694 227.297C376.597 226.635 375.229 226.305 373.593 226.305H369.543V242.75ZM393.102 245.327C391.588 245.327 390.283 244.993 389.185 244.325C388.094 243.65 387.252 242.709 386.659 241.502C386.072 240.289 385.779 238.877 385.779 237.268C385.779 235.659 386.072 234.241 386.659 233.014C387.252 231.78 388.077 230.818 389.134 230.13C390.197 229.434 391.438 229.086 392.856 229.086C393.675 229.086 394.483 229.223 395.28 229.495C396.078 229.768 396.804 230.211 397.459 230.825C398.113 231.432 398.635 232.236 399.023 233.239C399.412 234.241 399.606 235.475 399.606 236.941V237.964H387.497V235.877H397.152C397.152 234.991 396.975 234.2 396.62 233.505C396.272 232.809 395.775 232.26 395.127 231.858C394.486 231.456 393.729 231.255 392.856 231.255C391.895 231.255 391.063 231.493 390.361 231.97C389.665 232.441 389.13 233.055 388.755 233.811C388.38 234.568 388.193 235.38 388.193 236.245V237.636C388.193 238.823 388.397 239.828 388.806 240.653C389.222 241.472 389.798 242.095 390.535 242.525C391.271 242.948 392.127 243.159 393.102 243.159C393.736 243.159 394.309 243.07 394.82 242.893C395.338 242.709 395.785 242.436 396.16 242.075C396.535 241.707 396.825 241.25 397.029 240.705L399.361 241.359C399.115 242.15 398.703 242.845 398.123 243.445C397.544 244.039 396.828 244.502 395.976 244.836C395.123 245.164 394.165 245.327 393.102 245.327ZM414.781 229.291L408.972 245H406.518L400.709 229.291H403.327L407.663 241.809H407.827L412.163 229.291H414.781Z" fill="#353745"/>
<path d="M134.827 186.965V118.303H162.319C167.37 118.303 171.583 119.052 174.958 120.549C178.333 122.047 180.87 124.125 182.569 126.785C184.268 129.422 185.117 132.462 185.117 135.904C185.117 138.586 184.581 140.944 183.508 142.978C182.435 144.99 180.96 146.644 179.082 147.94C177.227 149.214 175.104 150.119 172.712 150.656V151.326C175.327 151.438 177.775 152.176 180.054 153.539C182.357 154.902 184.223 156.813 185.653 159.272C187.084 161.708 187.799 164.614 187.799 167.989C187.799 171.632 186.894 174.884 185.083 177.745C183.295 180.584 180.647 182.83 177.138 184.484C173.629 186.138 169.304 186.965 164.163 186.965H134.827ZM149.344 175.097H161.179C165.225 175.097 168.175 174.325 170.03 172.783C171.885 171.219 172.813 169.14 172.813 166.547C172.813 164.647 172.355 162.971 171.438 161.518C170.522 160.066 169.214 158.926 167.516 158.099C165.839 157.272 163.839 156.858 161.514 156.858H149.344V175.097ZM149.344 147.035H160.106C162.095 147.035 163.861 146.688 165.403 145.996C166.968 145.28 168.197 144.275 169.091 142.978C170.008 141.682 170.466 140.128 170.466 138.318C170.466 135.837 169.583 133.837 167.817 132.317C166.074 130.797 163.593 130.037 160.374 130.037H149.344V147.035ZM208.829 187.937C205.544 187.937 202.616 187.367 200.045 186.227C197.475 185.065 195.441 183.355 193.943 181.098C192.468 178.818 191.731 175.979 191.731 172.582C191.731 169.721 192.256 167.318 193.306 165.374C194.357 163.429 195.787 161.865 197.598 160.68C199.408 159.496 201.465 158.602 203.767 157.998C206.091 157.395 208.527 156.97 211.075 156.724C214.071 156.411 216.484 156.121 218.317 155.852C220.15 155.562 221.48 155.137 222.307 154.578C223.134 154.02 223.547 153.193 223.547 152.097V151.896C223.547 149.773 222.877 148.13 221.536 146.968C220.217 145.806 218.34 145.224 215.903 145.224C213.333 145.224 211.288 145.794 209.768 146.934C208.248 148.052 207.242 149.46 206.751 151.159L193.541 150.086C194.212 146.957 195.53 144.252 197.497 141.972C199.464 139.67 202.001 137.905 205.108 136.675C208.237 135.424 211.858 134.798 215.97 134.798C218.831 134.798 221.569 135.133 224.184 135.804C226.822 136.474 229.157 137.513 231.191 138.922C233.248 140.33 234.868 142.14 236.053 144.353C237.237 146.543 237.83 149.169 237.83 152.232V186.965H224.285V179.824H223.883C223.056 181.433 221.949 182.852 220.563 184.082C219.178 185.289 217.513 186.238 215.568 186.931C213.624 187.602 211.377 187.937 208.829 187.937ZM212.919 178.08C215.02 178.08 216.876 177.667 218.485 176.84C220.094 175.991 221.357 174.851 222.273 173.42C223.19 171.99 223.648 170.369 223.648 168.559V163.094C223.201 163.385 222.586 163.653 221.804 163.899C221.044 164.122 220.184 164.335 219.222 164.536C218.261 164.715 217.3 164.882 216.339 165.039C215.378 165.173 214.506 165.296 213.724 165.407C212.048 165.653 210.584 166.044 209.332 166.581C208.08 167.117 207.108 167.844 206.415 168.76C205.722 169.654 205.376 170.772 205.376 172.113C205.376 174.057 206.08 175.544 207.488 176.572C208.919 177.578 210.729 178.08 212.919 178.08ZM265.054 187.803C261.142 187.803 257.6 186.797 254.426 184.786C251.274 182.752 248.771 179.768 246.916 175.834C245.083 171.878 244.167 167.028 244.167 161.284C244.167 155.383 245.117 150.477 247.017 146.566C248.916 142.632 251.442 139.693 254.593 137.748C257.767 135.781 261.243 134.798 265.02 134.798C267.903 134.798 270.306 135.289 272.228 136.273C274.173 137.234 275.737 138.441 276.922 139.894C278.129 141.324 279.045 142.732 279.671 144.118H280.107V118.303H294.356V186.965H280.275V178.717H279.671C279.001 180.148 278.051 181.567 276.822 182.975C275.615 184.361 274.039 185.512 272.094 186.428C270.172 187.345 267.825 187.803 265.054 187.803ZM269.58 176.438C271.882 176.438 273.826 175.812 275.413 174.56C277.023 173.286 278.252 171.509 279.101 169.229C279.973 166.95 280.409 164.279 280.409 161.217C280.409 158.155 279.984 155.495 279.135 153.237C278.285 150.98 277.056 149.236 275.447 148.007C273.838 146.778 271.882 146.163 269.58 146.163C267.233 146.163 265.255 146.8 263.646 148.074C262.036 149.348 260.818 151.114 259.991 153.371C259.164 155.629 258.751 158.244 258.751 161.217C258.751 164.212 259.164 166.86 259.991 169.162C260.841 171.442 262.059 173.23 263.646 174.527C265.255 175.801 267.233 176.438 269.58 176.438ZM303.266 186.965V135.468H317.548V186.965H303.266ZM310.441 128.83C308.317 128.83 306.496 128.126 304.976 126.718C303.478 125.287 302.73 123.578 302.73 121.588C302.73 119.621 303.478 117.934 304.976 116.526C306.496 115.095 308.317 114.38 310.441 114.38C312.564 114.38 314.375 115.095 315.872 116.526C317.392 117.934 318.152 119.621 318.152 121.588C318.152 123.578 317.392 125.287 315.872 126.718C314.375 128.126 312.564 128.83 310.441 128.83ZM340.842 187.937C337.556 187.937 334.628 187.367 332.058 186.227C329.487 185.065 327.453 183.355 325.956 181.098C324.481 178.818 323.743 175.979 323.743 172.582C323.743 169.721 324.268 167.318 325.319 165.374C326.369 163.429 327.8 161.865 329.61 160.68C331.421 159.496 333.477 158.602 335.779 157.998C338.104 157.395 340.54 156.97 343.088 156.724C346.083 156.411 348.497 156.121 350.33 155.852C352.162 155.562 353.492 155.137 354.319 154.578C355.146 154.02 355.56 153.193 355.56 152.097V151.896C355.56 149.773 354.889 148.13 353.548 146.968C352.229 145.806 350.352 145.224 347.916 145.224C345.345 145.224 343.3 145.794 341.78 146.934C340.26 148.052 339.255 149.46 338.763 151.159L325.554 150.086C326.224 146.957 327.543 144.252 329.51 141.972C331.477 139.67 334.013 137.905 337.12 136.675C340.249 135.424 343.87 134.798 347.983 134.798C350.844 134.798 353.582 135.133 356.197 135.804C358.834 136.474 361.17 137.513 363.204 138.922C365.26 140.33 366.88 142.14 368.065 144.353C369.25 146.543 369.842 149.169 369.842 152.232V186.965H356.297V179.824H355.895C355.068 181.433 353.962 182.852 352.576 184.082C351.19 185.289 349.525 186.238 347.58 186.931C345.636 187.602 343.39 187.937 340.842 187.937ZM344.932 178.08C347.033 178.08 348.888 177.667 350.497 176.84C352.106 175.991 353.369 174.851 354.286 173.42C355.202 171.99 355.66 170.369 355.66 168.559V163.094C355.213 163.385 354.599 163.653 353.816 163.899C353.056 164.122 352.196 164.335 351.235 164.536C350.274 164.715 349.313 164.882 348.352 165.039C347.39 165.173 346.519 165.296 345.736 165.407C344.06 165.653 342.596 166.044 341.344 166.581C340.093 167.117 339.121 167.844 338.428 168.76C337.735 169.654 337.388 170.772 337.388 172.113C337.388 174.057 338.092 175.544 339.501 176.572C340.931 177.578 342.741 178.08 344.932 178.08ZM392.372 118.303V186.965H378.09V118.303H392.372ZM400.981 186.965V135.468H415.263V186.965H400.981ZM408.156 128.83C406.032 128.83 404.211 128.126 402.691 126.718C401.193 125.287 400.445 123.578 400.445 121.588C400.445 119.621 401.193 117.934 402.691 116.526C404.211 115.095 406.032 114.38 408.156 114.38C410.279 114.38 412.089 115.095 413.587 116.526C415.107 117.934 415.867 119.621 415.867 121.588C415.867 123.578 415.107 125.287 413.587 126.718C412.089 128.126 410.279 128.83 408.156 128.83Z" fill="#353745"/>
<path d="M5.96771 106V37.3379H20.4847V94.0311H49.9209V106H5.96771ZM89.4576 84.0737V54.5034H103.74V106H90.0275V96.6461H89.4911C88.3289 99.6635 86.3955 102.089 83.691 103.921C81.0089 105.754 77.7345 106.671 73.8678 106.671C70.4257 106.671 67.3972 105.888 64.7821 104.324C62.1671 102.759 60.122 100.535 58.6468 97.6519C57.194 94.7686 56.4564 91.3154 56.434 87.2922V54.5034H70.7163V84.7442C70.7387 87.784 71.5545 90.1867 73.1637 91.9524C74.773 93.7181 76.9299 94.601 79.6343 94.601C81.3554 94.601 82.9646 94.2099 84.4621 93.4276C85.9597 92.623 87.1666 91.4384 88.083 89.8738C89.0217 88.3092 89.4799 86.3759 89.4576 84.0737ZM112.332 106V54.5034H126.614V106H112.332ZM119.506 47.8652C117.383 47.8652 115.561 47.1611 114.042 45.753C112.544 44.3225 111.795 42.6127 111.795 40.6234C111.795 38.6566 112.544 36.9691 114.042 35.561C115.561 34.1305 117.383 33.4153 119.506 33.4153C121.63 33.4153 123.44 34.1305 124.938 35.561C126.457 36.9691 127.217 38.6566 127.217 40.6234C127.217 42.6127 126.457 44.3225 124.938 45.753C123.44 47.1611 121.63 47.8652 119.506 47.8652ZM178.069 69.188L164.994 69.9926C164.77 68.8751 164.29 67.8693 163.552 66.9752C162.815 66.0588 161.842 65.3324 160.636 64.796C159.451 64.2372 158.032 63.9578 156.378 63.9578C154.165 63.9578 152.299 64.4272 150.779 65.366C149.259 66.2823 148.499 67.5116 148.499 69.0539C148.499 70.2832 148.991 71.3225 149.974 72.1718C150.958 73.0212 152.645 73.7029 155.037 74.2169L164.357 76.0944C169.364 77.1226 173.096 78.7765 175.555 81.0563C178.013 83.3361 179.243 86.3312 179.243 90.0414C179.243 93.4164 178.248 96.3779 176.259 98.9259C174.292 101.474 171.588 103.463 168.145 104.894C164.726 106.302 160.781 107.006 156.311 107.006C149.494 107.006 144.062 105.587 140.017 102.748C135.994 99.887 133.636 95.9979 132.943 91.0807L146.99 90.3432C147.415 92.4218 148.443 94.0087 150.075 95.1039C151.706 96.1768 153.796 96.7132 156.344 96.7132C158.847 96.7132 160.859 96.2326 162.379 95.2715C163.921 94.2881 164.703 93.0253 164.726 91.4831C164.703 90.1867 164.156 89.125 163.083 88.298C162.01 87.4487 160.356 86.8005 158.121 86.3535L149.203 84.5766C144.174 83.5708 140.43 81.8274 137.972 79.3465C135.535 76.8655 134.317 73.7029 134.317 69.8585C134.317 66.5506 135.211 63.7008 136.999 61.3093C138.81 58.9177 141.347 57.0738 144.61 55.7774C147.895 54.481 151.74 53.8329 156.143 53.8329C162.647 53.8329 167.766 55.2074 171.498 57.9566C175.253 60.7058 177.443 64.4496 178.069 69.188Z" fill="#353745"/>
<circle cx="247.698" cy="53.0446" r="46.3672" transform="rotate(-5 247.698 53.0446)" fill="#D8FF80"/>
<path fill-rule="evenodd" clip-rule="evenodd" d="M250.635 86.6203C269.179 84.9979 282.896 68.6505 281.273 50.1071C279.651 31.5638 263.304 17.8466 244.76 19.469C226.217 21.0913 212.5 37.4388 214.122 55.9821C215.744 74.5254 232.092 88.2426 250.635 86.6203ZM250.873 89.3374C270.917 87.5838 285.744 69.9134 283.991 49.8694C282.237 29.8255 264.567 14.9982 244.523 16.7519C224.479 18.5055 209.651 36.1759 211.405 56.2198C213.159 76.2638 230.829 91.091 250.873 89.3374Z" fill="#353745"/>
<path d="M264.734 50.4626C265.435 50.4013 266.621 50.8363 266.446 52.6929C266.394 53.245 266.472 53.4451 266.296 54.027C266.202 54.3365 266.093 54.6471 265.954 54.9485C265.816 55.2466 265.665 55.5397 265.485 55.8159C264.988 56.5906 264.335 57.3335 263.593 58.0268C262.577 58.9764 261.413 59.8457 260.318 60.5717C257.789 62.4695 255.143 63.9431 252.312 65.011C249.502 66.0709 246.513 66.7162 243.302 67.0249C241.846 67.1397 240.273 67.2368 238.753 67.1235C237.648 67.0411 236.57 66.8481 235.574 66.4891C234.609 66.141 233.746 65.6522 232.964 65.0719C231.823 64.2252 230.858 63.1835 230 62.1286C229.564 61.5942 229.325 59.7065 229.877 59.2801C230.43 58.8538 231.232 58.9416 231.669 59.476C232.285 60.2289 232.961 60.9787 233.739 61.6255C234.442 62.2104 235.231 62.7102 236.144 63.0359C236.921 63.3137 237.765 63.4518 238.628 63.5146C240.013 63.6153 241.446 63.5194 242.772 63.4137C245.765 63.2269 248.556 62.7 251.209 61.8249C253.903 60.9365 256.458 59.7016 258.919 58.0451C259.878 57.3151 260.904 56.4615 261.766 55.5222C262.322 54.9172 262.794 54.2706 263.139 53.611C263.33 52.9117 263.473 52.2555 263.569 51.5555C263.685 50.7078 264.357 50.4956 264.734 50.4626Z" fill="#353745"/>
<path fill-rule="evenodd" clip-rule="evenodd" d="M254.132 42.4285C254.878 42.687 254.963 44.1859 255.089 44.8695C255.483 47.0025 255.864 49.5887 255.366 51.7188C255.177 52.5264 254.502 54.3945 253.386 54.1716C252.729 54.0405 252.282 52.8365 252.068 52.2882C251.228 50.1303 251.698 47.9872 251.603 45.7008C251.527 43.86 252.037 41.7029 254.132 42.4285Z" fill="#353745"/>
<path fill-rule="evenodd" clip-rule="evenodd" d="M239.56 43.7034C238.87 44.0876 239.047 45.5784 239.041 46.2735C239.024 48.4425 239.097 51.0557 239.958 53.0669C240.285 53.8293 241.273 55.5519 242.334 55.1386C242.958 54.8954 243.19 53.632 243.305 53.0549C243.758 50.7838 242.923 48.755 242.619 46.4868C242.374 44.6608 241.497 42.625 239.56 43.7034Z" fill="#353745"/>
</svg>
